<?xml version="1.0" encoding="UTF-8" standalone="no"?>
<!-- Created with Inkscape (http://www.inkscape.org/) -->

<svg
   xmlns:dc="http://purl.org/dc/elements/1.1/"
   xmlns:cc="http://creativecommons.org/ns#"
   xmlns:rdf="http://www.w3.org/1999/02/22-rdf-syntax-ns#"
   xmlns:svg="http://www.w3.org/2000/svg"
   xmlns="http://www.w3.org/2000/svg"
   xmlns:sodipodi="http://sodipodi.sourceforge.net/DTD/sodipodi-0.dtd"
   xmlns:inkscape="http://www.inkscape.org/namespaces/inkscape"
   id="svg2"
   version="1.1"
   inkscape:version="0.91 r13725"
   width="301.47699"
   height="285.375"
   viewBox="0 0 301.47699 285.375"
   sodipodi:docname="CG Speedway 1.svg">
  <metadata
     id="metadata8">
    <rdf:RDF>
      <cc:Work
         rdf:about="">
        <dc:format>image/svg+xml</dc:format>
        <dc:type
           rdf:resource="http://purl.org/dc/dcmitype/StillImage" />
        <dc:title></dc:title>
      </cc:Work>
    </rdf:RDF>
  </metadata>
  <defs
     id="defs6" />
  <sodipodi:namedview
     pagecolor="#ffffff"
     bordercolor="#666666"
     borderopacity="1"
     objecttolerance="10"
     gridtolerance="10"
     guidetolerance="10"
     inkscape:pageopacity="0"
     inkscape:pageshadow="2"
     inkscape:window-width="1857"
     inkscape:window-height="1056"
     id="namedview4"
     showgrid="false"
     inkscape:snap-bbox="true"
     inkscape:snap-bbox-edge-midpoints="false"
     inkscape:snap-bbox-midpoints="true"
     inkscape:bbox-nodes="true"
     inkscape:snap-center="true"
     inkscape:snap-object-midpoints="true"
     fit-margin-top="0"
     fit-margin-left="0"
     fit-margin-right="0"
     fit-margin-bottom="0"
     inkscape:zoom="2.085965"
     inkscape:cx="210.01917"
     inkscape:cy="200.68629"
     inkscape:window-x="1983"
     inkscape:window-y="24"
     inkscape:window-maximized="1"
     inkscape:current-layer="svg2" />
  <rect
     style="opacity:1;fill:#b1b1b1;fill-opacity:1;fill-rule:evenodd;stroke:none;stroke-width:0.625;stroke-linecap:butt;stroke-linejoin:miter;stroke-miterlimit:4;stroke-dasharray:none;stroke-dashoffset:0;stroke-opacity:1"
     id="rect4161"
     width="301.375"
     height="285.375"
     x="0.1019906"
     y="0" />
  <path
     style="fill:#000000"
     d="M 223.75397,0.14129538 C 182.16687,0.66501948 140.52166,-0.46113902 98.972721,1.5846552 84.152105,2.4965612 70.909305,11.306979 60.607489,21.445983 46.692976,36.030652 42.781223,59.066758 51.492255,77.315123 c 6.107967,13.819881 15.004066,27.441687 14.089844,43.173827 0.36474,12.9264 0.570192,26.56064 -5.71716,38.17618 -7.895722,19.32663 -24.607372,32.54476 -42.03203,42.84545 -9.9075536,6.07166 -18.33131964,16.30277 -17.69807574,28.52134 -1.0599427,10.73746 4.30887714,20.3353 9.80301914,29.09063 5.6338186,10.19501 12.5370366,21.31172 24.5739336,24.51679 18.199338,6.14561 41.186737,-5.51452 44.302734,-25.10938 3.404878,-11.16536 2.626974,-24.01075 9.425782,-33.88476 32.592528,-30.47198 67.623428,-58.19246 101.613278,-87.08135 23.37799,-19.38315 46.32557,-39.772476 73.42711,-53.914668 10.06389,-6.723609 21.89748,-11.545506 30.11781,-20.669996 7.83689,-9.442624 9.2924,-22.923235 7.11719,-34.611328 C 296.99711,16.804585 288.63786,6.7328572 277.07429,2.6198112 263.69697,-1.1491387 249.45139,0.82012218 235.7247,0.14202218 c -3.99022,-0.011292 -7.98049,0.00154 -11.97073,-7.268e-4 z M 212.09772,15.879576 c 19.47308,0.547271 39.15627,-1.08011 58.44336,1.705079 13.13607,4.513255 19.57486,22.352552 10.88477,33.65039 -7.08977,8.091924 -17.38034,12.187855 -26.1543,18.134766 -20.06799,10.707193 -38.50828,24.080053 -55.77343,38.838019 -40.81802,34.05433 -81.91644,67.81793 -121.882818,102.87096 -12.660256,13.50506 -9.895395,33.77537 -17.210938,49.64258 -6.245745,10.50796 -23.993766,11.19144 -29.818359,-0.12109 -5.619252,-8.69447 -12.729105,-17.39895 -14.414063,-27.85352 -0.818882,-8.0716 4.605323,-14.69477 11.442437,-18.16737 17.866579,-10.24923 34.655894,-23.78526 43.90522,-42.62951 7.980631,-13.78973 11.25853,-29.75805 10.582031,-45.5957 C 82.766812,111.02208 79.28976,95.752424 72.017645,82.235045 67.033701,72.614743 61.368773,62.298351 63.825261,51.040137 65.973535,33.41413 82.667841,21.486991 98.722721,17.338561 c 27.709299,-2.558874 56.150399,-0.965036 84.173829,-1.466414 9.73372,0.0011 19.46745,0.0052 29.20117,0.0074 z"
     id="path4142-3"
     inkscape:connector-curvature="0" />
  <path
     style="fill:#ffffff;fill-opacity:1"
     d="m 31.402411,280.26765 c -8.133796,-3.84526 -11.152335,-7.31989 -20.74562,-23.8802 -7.2308436,-12.48218 -7.9991586,-14.49458 -8.4273986,-22.07337 -0.901141,-15.94796 3.941082,-23.47542 22.3967776,-34.81686 20.720573,-12.73325 32.358546,-26.36579 39.660101,-46.45721 2.986994,-8.2192 3.333668,-10.91508 3.349017,-26.04325 0.01955,-19.26632 -0.930476,-23.052 -10.691903,-42.605308 C 49.532383,69.546323 47.522838,59.856119 49.500343,48.500448 52.600231,30.699576 63.231942,17.726694 82.577627,8.1393332 c 11.133524,-5.517569 11.133524,-5.517569 99.948923,-5.862703 88.81541,-0.345135 88.81541,-0.345135 96.58095,3.477833 8.84681,4.3552678 13.24131,8.9778648 17.64757,18.5635458 2.65616,5.778399 2.99983,8.005768 2.50729,16.25 -0.65185,10.910679 -3.52676,17.671045 -10.32076,24.269299 -2.39624,2.327193 -15.98135,10.936981 -30.18914,19.13286 -25.83234,14.901596 -25.83234,14.901596 -97.84119,75.192912 -49.2618,41.24575 -73.072906,61.97619 -75.377244,65.625 -2.500347,3.95918 -4.068884,9.36027 -6.08664,20.95868 -1.49504,8.59375 -3.726851,17.59375 -4.959579,20 -7.75735,15.14212 -27.614827,21.83461 -43.085396,14.52089 z m 24.387711,-12.33339 c 6.989953,-4.75732 8.548724,-8.13681 11.739055,-25.45088 3.127224,-16.97157 5.566391,-23.30263 11.592029,-30.08811 1.942163,-2.18707 35.675794,-30.87457 74.963624,-63.75 71.43243,-59.773506 71.43243,-59.773506 96.98968,-74.509901 14.0565,-8.105016 27.40597,-16.643774 29.6655,-18.975015 10.82095,-11.164393 8.17729,-29.035758 -5.55064,-37.522693 -6.09147,-3.765897 -6.09147,-3.765897 -91.18921,-3.765897 -85.097749,0 -85.097749,0 -94.760228,4.614004 C 70.47545,27.44614 61.538374,39.642589 61.44917,56.411883 c -0.04365,8.206358 0.42309,9.742112 7.028102,23.125 9.786883,19.829901 11.56114,26.978757 11.623833,46.834877 0.05848,18.52226 -1.757493,27.19695 -8.64274,41.28534 -8.979754,18.37408 -20.386243,30.36346 -40.170152,42.22287 -5.992517,3.5922 -11.971272,7.97218 -13.286121,9.73328 -3.36098,4.50166 -4.730539,11.63246 -3.258265,16.9646 2.080258,7.53406 15.08397,28.22557 19.68875,31.32873 5.796148,3.90603 15.64033,3.91878 21.357545,0.0276 z"
     id="path4142"
     inkscape:connector-curvature="0" />
</svg>
