<?xml version="1.0" encoding="UTF-8" standalone="no"?>
<!-- Created with Inkscape (http://www.inkscape.org/) -->

<svg
   xmlns:dc="http://purl.org/dc/elements/1.1/"
   xmlns:cc="http://creativecommons.org/ns#"
   xmlns:rdf="http://www.w3.org/1999/02/22-rdf-syntax-ns#"
   xmlns:svg="http://www.w3.org/2000/svg"
   xmlns="http://www.w3.org/2000/svg"
   xmlns:sodipodi="http://sodipodi.sourceforge.net/DTD/sodipodi-0.dtd"
   xmlns:inkscape="http://www.inkscape.org/namespaces/inkscape"
   width="311.19858mm"
   height="186.03452mm"
   viewBox="0 0 1102.6721 659.17741"
   id="svg2"
   version="1.1"
   inkscape:version="0.91 r13725"
   sodipodi:docname="torcs_ruudskogen.svg">
  <defs
     id="defs4" />
  <sodipodi:namedview
     id="base"
     pagecolor="#ffffff"
     bordercolor="#666666"
     borderopacity="1.0"
     inkscape:pageopacity="0.0"
     inkscape:pageshadow="2"
     inkscape:zoom="0.49497475"
     inkscape:cx="330.75976"
     inkscape:cy="431.23605"
     inkscape:document-units="px"
     inkscape:current-layer="layer1"
     showgrid="false"
     fit-margin-top="0"
     fit-margin-left="0"
     fit-margin-right="0"
     fit-margin-bottom="0"
     inkscape:snap-bbox="true"
     inkscape:snap-bbox-midpoints="true"
     inkscape:snap-bbox-edge-midpoints="true"
     inkscape:bbox-nodes="true"
     inkscape:bbox-paths="true"
     inkscape:snap-page="true"
     inkscape:window-width="1857"
     inkscape:window-height="1056"
     inkscape:window-x="1983"
     inkscape:window-y="24"
     inkscape:window-maximized="1"
     inkscape:snap-center="true"
     inkscape:snap-object-midpoints="true" />
  <metadata
     id="metadata7">
    <rdf:RDF>
      <cc:Work
         rdf:about="">
        <dc:format>image/svg+xml</dc:format>
        <dc:type
           rdf:resource="http://purl.org/dc/dcmitype/StillImage" />
        <dc:title></dc:title>
      </cc:Work>
    </rdf:RDF>
  </metadata>
  <g
     inkscape:label="Vrstva 1"
     inkscape:groupmode="layer"
     id="layer1"
     transform="translate(257.03598,-30.389709)">
    <rect
       style="opacity:1;fill:#cecece;fill-opacity:1;fill-rule:evenodd;stroke:#465af2;stroke-width:0.35433072;stroke-linecap:butt;stroke-linejoin:miter;stroke-miterlimit:0;stroke-dasharray:none;stroke-dashoffset:0;stroke-opacity:1"
       id="rect4155"
       width="1102.3177"
       height="658.82312"
       x="-256.85883"
       y="30.566877" />
    <path
       style="fill:#000000;fill-opacity:1"
       d="m 638.20117,30.396484 c -67.33279,0.286904 -134.2058,10.707608 -201.41899,11.437777 -58.93447,1.984218 -117.91935,0.114585 -176.58687,-4.969027 -30.69617,-1.233461 -63.61937,9.198373 -82.96289,34.189454 -16.42407,20.000467 -17.28183,47.220582 -20.36942,71.640962 -1.65459,11.47558 -3.22775,25.13478 -14.2087,31.79654 -10.97711,7.76404 -25.09393,4.65217 -37.57179,6.03665 -48.651504,1.1995 -97.3200567,-0.30602 -145.978546,-0.19169 -40.733905,-0.21508 -81.614364,-1.45655 -122.234894,2.07288 -20.91004,3.5282 -40.38231,13.80571 -56.67838,27.14782 -17.80162,16.38903 -28.223,39.35594 -34.29621,62.42422 -5.5219,26.47375 -1.98364,53.74902 0.4327,80.36708 4.35421,37.84112 13.36774,75.75586 32.48394,109.04089 11.48672,21.9401 26.05192,42.35496 36.6674,64.6373 11.30554,28.90054 13.58324,61.64982 31.92695,87.65287 19.39982,29.07045 53.033956,45.45498 86.800156,50.86293 59.5036202,10.53625 119.556967,18.66236 179.861624,23.25349 61.06202,3.42079 122.31761,1.49583 183.29994,-2.4646 25.82119,-2.57728 49.66624,-16.26181 67.53711,-34.66601 12.18824,-12.60816 19.86487,-29.51184 19.94922,-47.17188 -0.077,-21.54075 1.71562,-44.33318 -7.30307,-64.50547 -7.46245,-15.15831 -23.53659,-23.4826 -38.34517,-29.95225 -23.61124,-9.73856 -49.49949,-11.84664 -74.28929,-15.32841 -5.43474,-1.25326 -14.49101,-1.76077 -13.98435,-9.47559 0.75456,-11.20866 12.70267,-17.44702 22.79297,-17.2168 66.16834,-3.46797 132.54544,-2.47368 198.8125,-2.80748 74.01051,-0.45069 148.05322,-0.20506 222.02638,-2.86521 12.9023,-0.0866 25.89484,-1.08886 37.96971,-6.00504 26.34825,-10.47495 53.45798,-23.51105 70.98047,-46.6875 17.63547,-25.20913 29.29315,-54.54523 35.00977,-84.71094 6.74715,-41.22547 8.04955,-83.22216 6.55859,-124.90429 C 842.07854,162.75489 832.72797,125.963 812.23438,95.464844 798.83376,76.010653 780.01897,60.374756 758.08203,51.472656 722.84775,35.784393 683.72426,32.021521 645.60753,30.432561 c -2.46851,-0.04403 -4.93754,-0.05023 -7.40636,-0.03608 z m 19.15625,51.927735 c 32.17214,0.477224 65.90243,5.852229 93.60143,23.723331 17.19361,11.70398 27.21618,30.87955 34.59625,49.74909 8.26207,21.49302 5.23986,45.06393 6.36263,67.71687 0.11745,31.15411 0.65075,62.4594 -3.51929,93.33219 -6.1182,34.32369 -26.6134,66.75548 -57.39727,83.81611 -28.48448,14.52147 -61.28428,14.95069 -92.51698,13.49487 -120.54695,-1.61419 -241.34989,-6.65999 -361.74621,2.1509 -16.42428,2.0358 -34.52491,2.03923 -48.70282,11.70414 -19.34216,14.55613 -32.54551,39.16831 -28.95508,63.75586 2.45834,21.93159 18.15748,42.25449 39.88086,47.83984 28.88702,8.08059 60.54351,5.75139 87.43554,20.21094 9.90742,6.35168 10.19133,19.6406 10.98047,30.15039 0.40568,11.49468 -4.95093,22.73813 -14.34606,29.41408 -14.16343,12.58334 -33.32982,17.5015 -51.8437,18.08683 -43.40656,4.05234 -87.38106,4.78188 -131.04866,3.02114 -53.803008,-6.65533 -107.869409,-12.01801 -161.519389,-19.79939 -19.880123,-3.62918 -40.386739,-5.74027 -59.324219,-13.10743 -20.151232,-8.33843 -35.443932,-26.35413 -41.000002,-47.3789 -6.64281,-22.19035 -10.46029,-45.46556 -21.6556,-66.03882 -16.75534,-33.33822 -39.63192,-63.83744 -50.72916,-99.78345 -10.96449,-34.13677 -10.25077,-70.38671 -9.32227,-105.6914 0.11265,-11.64053 3.01119,-23.43302 10.87695,-32.33985 9.70672,-11.6378 22.98221,-21.47654 38.60359,-22.35075 43.96371,-2.69274 88.260838,-2.22238 132.372971,-2.2929 54.316844,-0.0461 108.702606,0.79496 162.960939,-2.01455 15.88977,-1.43048 30.54218,-9.44486 41.23171,-21.14146 17.29452,-16.89535 23.36007,-41.37292 25.77611,-64.6476 1.96349,-16.63571 3.32819,-36.17877 17.82617,-47.18555 9.70923,-7.267485 22.54683,-5.444056 33.80568,-6.854283 115.64366,-2.377688 231.5255,-0.627616 347.16215,-5.890717 16.71334,-0.787064 33.41352,-1.727575 50.15326,-1.649531 z"
       id="path4153-0"
       inkscape:connector-curvature="0" />
    <path
       style="fill:#ffffff;fill-opacity:1"
       d="m 206.52009,683.21784 c -77.32054,1.06758 -102.8565,-0.50059 -186.329114,-11.44237 -67.365984,-8.83044 -103.404717,-15.63134 -118.72,-22.40372 -12.095016,-5.34835 -27.719506,-15.16018 -34.721166,-21.80407 -7.00166,-6.64393 -16.58626,-19.57634 -21.29913,-28.73879 -4.71282,-9.16241 -11.32203,-28.46113 -14.68714,-42.88601 -3.36511,-14.42493 -8.65554,-31.12037 -11.75651,-37.10108 -3.10101,-5.98066 -14.29809,-24.98594 -24.88245,-42.23394 -10.58436,-17.248 -23.38883,-43.77614 -28.45432,-58.95138 -5.06554,-15.17529 -11.34605,-46.42329 -13.95663,-69.44 -2.61063,-23.01676 -3.43097,-52.39965 -1.823,-65.29533 1.75978,-14.11357 8.51742,-32.78728 16.97651,-46.91214 11.21738,-18.73066 19.4212,-26.20321 40.65765,-37.03334 26.60466,-13.56781 26.60466,-13.56781 177.864471,-12.47734 151.259849,1.09048 151.259849,1.09048 163.180689,-9.16339 10.14711,-8.7282 12.40803,-15.22304 15.1954,-43.65048 1.801,-18.36813 6.61149,-39.844398 10.68995,-47.725032 4.07845,-7.880634 14.16374,-19.475635 22.41178,-25.76672 8.24799,-6.29104 24.58669,-13.229978 36.3082,-15.419757 12.14676,-2.269299 34.11709,-2.329421 51.08831,-0.139776 16.37709,2.112903 64.80732,3.907591 107.62273,3.988186 42.81545,0.08064 111.35945,-3.093351 152.32,-7.053312 46.30071,-4.476192 90.80606,-6.175008 117.64717,-4.490707 23.74539,1.490048 56.4205,6.800774 72.61135,11.801619 16.19085,5.000845 37.88463,15.589683 48.20838,23.530707 10.32376,7.941069 24.57876,24.780672 31.67773,37.421352 7.099,12.64068 16.08109,37.84068 19.96023,56 5.29326,24.77906 6.44457,47.54808 4.61445,91.25693 -1.45251,34.69119 -5.46426,68.20298 -9.92168,82.88 -4.11569,13.552 -12.11029,33.712 -17.76575,44.8 -5.65542,11.088 -16.01461,25.55943 -23.02035,32.15874 -7.00578,6.5993 -22.81776,16.96885 -35.13776,23.04341 -12.32,6.07461 -29.4534,12.53746 -38.07426,14.36199 -8.62087,1.82448 -113.74546,3.55093 -233.61023,3.83653 -207.62592,0.49478 -218.38208,0.92306 -227.36574,9.05368 -5.18636,4.69388 -9.42977,12.00703 -9.42977,16.25143 0,4.24444 2.52,9.7039 5.6,12.13215 3.08,2.42829 19.40539,5.64171 36.27864,7.14094 17.78201,1.58001 40.7184,7.32229 54.56134,13.65979 15.89768,7.27821 26.23604,15.48472 30.92136,24.54511 4.53833,8.77614 7.03866,25.39076 7.03866,46.77125 0,27.07232 -1.87009,35.93497 -10.18662,48.27585 -5.6026,8.31376 -16.95748,19.6788 -25.23302,25.25569 -8.2755,5.57688 -22.33952,12.52173 -31.25338,15.43306 -9.63804,3.14783 -52.52307,5.79465 -105.80698,6.53036 z m 6.72,-36.33728 c 35.728,-0.83238 73.64883,-3.97613 84.26849,-6.98616 10.61966,-3.00997 25.23566,-11.39989 32.48,-18.64423 10.39449,-10.3945 13.17151,-17.13918 13.17151,-31.99011 0,-10.35019 -2.93794,-23.013 -6.5287,-28.1396 -3.59081,-5.12656 -15.18281,-11.54895 -25.76,-14.27198 -10.57724,-2.72299 -30.3193,-6.26949 -43.8713,-7.88104 -13.552,-1.61159 -30.14986,-5.75187 -36.88415,-9.20071 -6.73429,-3.44879 -15.30229,-12.1843 -19.04,-19.41224 -3.73771,-7.2279 -6.78832,-19.79381 -6.77909,-27.92416 0.009,-8.13035 3.94495,-21.22494 8.74612,-29.09907 4.80113,-7.8741 14.00323,-17.77216 20.4491,-21.99564 9.03217,-5.91812 28.34392,-8.60693 84.21387,-11.72537 39.87178,-2.22548 131.96615,-2.90779 204.65415,-1.51621 72.688,1.39158 140.16769,2.53935 149.95487,2.55064 9.78719,0.009 28.93919,-3.1971 42.56,-7.12974 18.57041,-5.36171 29.85862,-12.41117 45.12785,-28.18216 14.16437,-14.62984 23.02841,-29.16735 29.12,-47.75841 7.21123,-22.00804 8.75728,-39.38135 8.75728,-98.40651 0,-65.31961 -0.91383,-73.66267 -10.29885,-94.02418 -5.66433,-12.28931 -14.73633,-27.10154 -20.16,-32.916 -5.42362,-5.8145 -16.96674,-14.216738 -25.65136,-18.671695 -8.68461,-4.454957 -28.47219,-10.594931 -43.97245,-13.644423 -20.51406,-4.035897 -46.69217,-4.5192 -96.20984,-1.77623 -37.41512,2.072582 -136.38096,4.038541 -219.92414,4.368806 -151.89659,0.600455 -151.89659,0.600455 -163.92392,14.061332 -9.52407,10.65926 -12.60385,19.63503 -14.79744,43.12569 -1.5236,16.31562 -6.82313,37.60929 -11.7768,47.31928 -4.95367,9.70995 -16.62935,22.39364 -25.94592,28.18597 -16.92799,10.52441 -17.04223,10.53145 -171.4992801,10.53145 -138.2420499,0 -156.0598999,0.8206 -168.7667999,7.77239 -7.81374,4.27482 -18.90174,14.35482 -24.64,22.4 -9.38165,13.15328 -10.40856,19.36875 -10.18864,61.66761 0.18189,34.96519 2.72577,55.08984 9.91062,78.4 5.31637,17.248 19.8765,47.488 32.3559,67.2 12.4794,19.712 25.52771,45.92 28.99626,58.24 3.46855,12.32 8.54112,30.98757 11.27244,41.48354 2.83683,10.9015 11.40142,25.51898 19.97574,34.0933 10.805043,10.80504 22.987104,17.01992 43.487091,22.18563 15.662573,3.94674 65.7733889,11.39967 111.357389,16.56202 45.584001,5.16235 86.912,10.1231 91.84,11.02385 4.928,0.90079 38.192,0.95674 73.92,0.12454 z"
       id="path4153"
       inkscape:connector-curvature="0" />
  </g>
</svg>
